<svg width="54" height="44" viewBox="0 0 54 44" fill="none" xmlns="http://www.w3.org/2000/svg">
<path d="M26.875 41.875C26.875 41.875 19.192 41.0054 14.3111 41.0054C12.2467 41.0054 9.70381 41.161 7.45653 41.3405C4.4781 41.5785 1.875 39.2545 1.875 36.2665V12.3205C1.875 10.2245 3.18168 8.32555 5.2337 7.89835C5.89817 7.76001 6.61496 7.63968 7.33879 7.56707M26.875 41.875C26.875 41.875 34.3026 41.0054 39.1834 41.0054C41.3007 41.0054 43.9693 41.169 46.3125 41.3543C49.2837 41.5893 51.875 39.2679 51.875 36.2874V12.1877C51.875 10.1577 50.6425 8.30728 48.6505 7.91662C48.1081 7.81026 47.519 7.71776 46.9005 7.65572M26.875 41.875V36.6504M26.875 36.6504C26.875 36.6504 20.363 35.7881 16.4583 35.7881C15.359 35.7881 14.1356 35.8566 12.9451 35.955C9.86529 36.2096 7.10805 33.8385 7.13519 30.7483L7.33879 7.56707M26.875 36.6504C26.875 36.6504 33.047 35.7881 36.9516 35.7881C38.154 35.7881 39.537 35.8784 40.8755 36.0035C43.9304 36.2889 46.6889 33.9702 46.7136 30.9021L46.9005 7.65572M26.875 36.6504V2.74456M7.33879 7.56707V7.06503C7.33879 4.58373 9.15803 2.47331 11.6264 2.21985C13.4145 2.03624 15.455 1.875 17.1069 1.875C20.9432 1.875 26.875 2.74456 26.875 2.74456M46.9005 7.65572V7.08048C46.9005 4.59247 45.0711 2.47906 42.5957 2.22896C40.7413 2.0416 38.6086 1.875 36.8878 1.875C32.9564 1.875 26.875 2.74456 26.875 2.74456" stroke="#1F2A2A" stroke-width="3.75" stroke-linecap="round" stroke-linejoin="round"/>
</svg>
