<svg width="74" height="64" viewBox="0 0 74 64" fill="none" xmlns="http://www.w3.org/2000/svg">
<path d="M36.875 61.875C36.875 61.875 26.1188 60.5707 19.2856 60.5707C15.6967 60.5707 11.075 60.9305 7.49539 61.2721C4.50482 61.5575 1.875 59.2247 1.875 56.2206V15.7142C1.875 13.6602 3.13164 11.8051 5.11497 11.2706C6.40315 10.9235 7.95186 10.5821 9.52431 10.4131M36.875 61.875C36.875 61.875 47.2736 60.5707 54.1068 60.5707C57.7564 60.5707 62.576 60.9427 66.2749 61.2893C69.258 61.5689 71.875 59.2392 71.875 56.2431V15.5768C71.875 13.5919 70.6973 11.7863 68.7792 11.2754C67.6785 10.9823 66.3514 10.7009 64.9108 10.5461M36.875 61.875V54.0382M36.875 54.0382C36.875 54.0382 27.7582 52.7446 22.2917 52.7446C20.0292 52.7446 17.3912 52.9666 15.0761 53.2269C11.9842 53.5746 9.19007 51.1856 9.21558 48.0742L9.52431 10.4131M36.875 54.0382C36.875 54.0382 45.5158 52.7446 50.9823 52.7446C53.3586 52.7446 56.2391 53.0147 58.7364 53.32C61.8058 53.6954 64.6045 51.3563 64.6277 48.2641L64.9108 10.5461M36.875 54.0382V3.17934M9.52431 10.4131V7.45532C9.52431 4.99341 11.3156 2.89821 13.7592 2.59825C16.5938 2.25028 20.3188 1.875 23.1997 1.875C28.5705 1.875 36.875 3.17934 36.875 3.17934M64.9108 10.5461V7.47168C64.9108 5.00263 63.1102 2.90396 60.6588 2.609C57.7422 2.25805 53.8755 1.875 50.8929 1.875C45.389 1.875 36.875 3.17934 36.875 3.17934" stroke="#59E2D4" stroke-opacity="0.66" stroke-width="3.75" stroke-linecap="round" stroke-linejoin="round"/>
</svg>
