<svg width="21" height="21" viewBox="0 0 21 21" fill="none" xmlns="http://www.w3.org/2000/svg">
<path d="M4.13 2.33333C4.2 3.37167 4.375 4.38667 4.655 5.355L3.255 6.755C2.77667 5.355 2.47333 3.87333 2.36833 2.33333H4.13ZM15.6333 16.3567C16.625 16.6367 17.64 16.8117 18.6667 16.8817V18.62C17.1267 18.515 15.645 18.2117 14.2333 17.745L15.6333 16.3567ZM5.25 0H1.16667C0.525 0 0 0.525 0 1.16667C0 12.1217 8.87833 21 19.8333 21C20.475 21 21 20.475 21 19.8333V15.7617C21 15.12 20.475 14.595 19.8333 14.595C18.3867 14.595 16.975 14.3617 15.6683 13.93C15.5517 13.8833 15.4233 13.8717 15.3067 13.8717C15.0033 13.8717 14.7117 13.9883 14.4783 14.21L11.9117 16.7767C8.61 15.085 5.90333 12.39 4.22333 9.08833L6.79 6.52167C7.11667 6.195 7.21 5.74 7.08167 5.33167C6.65 4.025 6.41667 2.625 6.41667 1.16667C6.41667 0.525 5.89167 0 5.25 0Z" fill="#6AB5D4"/>
</svg>
